<svg xmlns="http://www.w3.org/2000/svg"
    xmlns:xlink="http://www.w3.org/1999/xlink" aria-hidden="true" role="img" width="32" height="32" viewBox="0 0 1024 1024">
    <path fill="#e9b142" d="M931.1,730.92C815.54,888.48,627.59,954.37,460.79,901.05c-196.19-62.7-317.59-76.84-312.48,123C-107.82,563,6.78,126.31,396.78,15.74,776.51-91.93,1191.88,375.3,931.1,730.92" />
    <path fill="#fff" d="M659.9,249.34c-3.48-64.76-15.49-90.79-69.1-100.1-5.74-44.06-22.46-54.06-58.31-68.71,21.58,19.7,23.85,43.26,12.88,42.57C529,118.45,526.58,90.22,485.5,90.52c21.58,24,22.1,32.68,15.31,43.17-10.61-5.83-20.71-19.79-52-13.36,23.84,14.55,28.72,23,29.94,27.32-77.63,14.66-120.8,78.32-127.93,178s7,171.09-17.92,170.89-24.2-49.21-13.24-61.49c-40.38,8.42-92.07,192,88.77,289.91-1,27.13,20,80,27,102.88,19-102.09,56.39-122.68,78.67-124.56,22.11.2,39,97.92,26.29,122.57,47.69-36.33,49.95-58.71,52.91-80.39,76.58-18.32,117.62-74.36,94.86-208.13-24-141.19-118.53-213-67.19-248.41-77.1-13.57-152.23-28.27-131.41-57.53C512.23,199.49,630.31,209.44,659.9,249.34Z" />
    <path fill="#fff" d="M475.58,147.82c-4.34-13.81-27.4-27.32-38.07-30.23,20.8-7.25,52.78.55,62,15,4.49-10.71.42-23.92-23.93-46.77,34.31,1,48.08,14,57.36,27.76,9.66,14.36,20.64,3.89,11.12-14-4.87-9.12-13.41-21-19.71-23.95,33.8,6,66.44,34.94,67.79,73.6C576.31,146.6,531.87,141.28,475.58,147.82Z" />
    <path fill="#e9b142" d="M547.57,319.92c-19.16,15.15-32.33,40-19.82,33.71S549.25,331,547.57,319.92Z" />
    <path fill="#e9b142" d="M553.77,322.65c3.52,16.92,24.68,35.72,27,26.46S569.54,327.32,553.77,322.65Z" />
    <path fill="#e9b142" d="M552.17,330.37c-1.12,8.59-5.3,61.57,14,77.31C583.57,408.45,565.66,355.38,552.17,330.37Z" />
    <path fill="#fff" d="M595,746.7c63.07-6.42,129.14-106.6,140.61-156.55,9-39.29,6.66-90.9-18-109.72,13.7,27.82,8.74,53.26-3.6,49-5.38-1.84,2.68-48.79-23.17-62.63,5.56,8.43,8.36,22.31,7.42,30.34-1.08,9.12-13.34,9.31-25.84-19.5C690.52,519.39,602.76,730.6,595,746.7Z" />
    <path fill="#fff" d="M407.35,832.22c23-13.17,46.77-15.22,56,6.58C445,835.12,426.8,830.33,407.35,832.22Z" />
    <path fill="#fff" d="M513.7,832.75c23-13.16,46.77-15.21,56,6.59C551.39,835.66,533.15,830.87,513.7,832.75Z" />
    <path fill="#fff" d="M276.75,444.35c12.74,53,12.33,41.11,39.66,78.62,14.55,36.44-10,36.18-25.06,22.8S262.5,478.34,276.75,444.35Z" />
    <path fill="#fff" d="M259.78,490.24c22.24,49.8,17,31.94,50.76,63.81,21,33.15,39,129,24.47,115.17C298.59,634.57,253.64,547.08,259.78,490.24Z" />
    <path fill="#e9b142" d="M507.52,170.49a11,11,0,1,1-11.27,11A11.15,11.15,0,0,1,507.52,170.49Z" />
</svg>